<?xml version="1.0" encoding="utf-8"?>
<!-- Generator: Adobe Illustrator 16.2.0, SVG Export Plug-In . SVG Version: 6.00 Build 0)  -->
<!DOCTYPE svg PUBLIC "-//W3C//DTD SVG 1.1//EN" "http://www.w3.org/Graphics/SVG/1.1/DTD/svg11.dtd">
<svg version="1.1" id="Layer_1" xmlns="http://www.w3.org/2000/svg" xmlns:xlink="http://www.w3.org/1999/xlink" x="0px" y="0px"
	 width="128px" height="128px" viewBox="0 0 128 128" enable-background="new 0 0 128 128" xml:space="preserve">
<circle fill="#919DD6" cx="64" cy="64" r="62.705"/>
<g>
	<defs>
		<circle id="SVGID_1_" cx="64" cy="64" r="62.705"/>
	</defs>
	<clipPath id="SVGID_2_">
		<use xlink:href="#SVGID_1_"  overflow="visible"/>
	</clipPath>
	<path clip-path="url(#SVGID_2_)" fill="#5E6785" d="M104.5,113.5c10.295-6.551,16.21-16.606,21.024-27.706L74.968,36.163
		c-0.156,0.112-0.318,0.221-0.468,0.337c0.149-0.116,0.312-0.225,0.468-0.337l-0.143-0.14C67.87,40.882,58.31,31.722,52.5,38.5
		c-2,2,0,7-2,8c-20.42,7.779-10.59,32.571-21.063,41.291l42.237,41.464c3.535-1.726,9.904-0.401,13.826-2.755
		C91.5,122.5,97.5,117.5,104.5,113.5z"/>
	<path clip-path="url(#SVGID_2_)" fill="#FFFFFF" d="M95.75,92.5c0,0.553-0.451,1-1.008,1H30.924c-0.557,0-1.008-0.447-1.008-1V46
		c0-0.552,0.451-1,1.008-1h63.818c0.557,0,1.008,0.448,1.008,1V92.5z"/>
	<path clip-path="url(#SVGID_2_)" fill="#C4C4C4" d="M95.75,73.418c0,0.192-16.459,6.009-32.917,6.009s-32.917-4.983-32.917-5.176
		V46.699c0-0.385,0.451-0.698,1.008-0.698h63.818c0.557,0,1.008,0.313,1.008,0.698V73.418z"/>
	<path clip-path="url(#SVGID_2_)" fill="#F1F1F1" d="M94.742,45H76.496v-0.901c0,0-0.192-0.016-0.531-0.109
		c-0.983-0.272-0.906-1.375-0.906-1.375s0-3.156,0-4.969s-1.563-1.563-1.563-1.563h-11.33h-0.12H52.042c0,0-1.563-0.25-1.563,1.563
		s0,4.969,0,4.969s0.078,1.103-0.906,1.375c-0.338,0.094-0.531,0.109-0.531,0.109V45H30.924c-0.557,0-1.008,0.313-1.008,0.698V73.25
		c0,0.192,16.459,5.176,32.917,5.176s32.917-5.816,32.917-6.009V45.698C95.75,45.313,95.299,45,94.742,45z M54.958,45v-0.917
		c0,0-1.255,0.016-1.333-1.5c-0.056-1.082-0.5-4.417,1.458-4.417c1.79,0,6.216,0,6.963,0c0.07,0,0.12,0,0.12,0
		c0.853,0,6.48,0,8.289,0c1.957,0,1.514,3.334,1.458,4.417c-0.078,1.516-1.333,1.5-1.333,1.5V45H54.958z"/>
	<path clip-path="url(#SVGID_2_)" fill="#949494" d="M62.916,75.058l-1.917-0.011v4.583c0,0,0.323,1.905,1.317,2.339
		c0.184,0.08,0.391,0.105,0.591,0.107v0.001c0.003,0,0.006-0.001,0.009-0.001s0.006,0.001,0.009,0.001v-0.001
		c0.2-0.002,0.407-0.027,0.591-0.107c0.994-0.434,1.317-2.339,1.317-2.339v-4.583L62.916,75.058z"/>
</g>
</svg>
